<svg width="38" height="38" fill="none" xmlns="http://www.w3.org/2000/svg"><path d="M2.533 32.142h17.1v1.9a1.9 1.9 0 0 0 1.9 1.9h2.534c.554 0 1.078-.248 1.435-.663.01 0 .02 0 .03-.01a2.48 2.48 0 0 0 1.701.673h7.6a1.9 1.9 0 0 0 1.9-1.9c0-.327-.089-.654-.257-.93a1.868 1.868 0 0 0 .633-2.534c.475-.297.792-.791.871-1.346a1.864 1.864 0 0 0-.475-1.524 1.883 1.883 0 0 0 .327-2.038 1.914 1.914 0 0 0-1.742-1.128h-1.9V4.908a2.538 2.538 0 0 0-2.533-2.533H2.533A2.538 2.538 0 0 0 0 4.908v24.7a2.538 2.538 0 0 0 2.533 2.534Zm21.534 2.533h-2.534a.638.638 0 0 1-.633-.633v-5.7c0-.347.287-.634.633-.634h2.534c.346 0 .633.287.633.634v5.7a.638.638 0 0 1-.633.633Zm12.666-8.233a.638.638 0 0 1-.633.633h-1.9a.638.638 0 0 0-.633.633c0 .347.287.634.633.634h1.9c.346 0 .633.287.633.633a.638.638 0 0 1-.633.633h-1.9a.638.638 0 0 0-.633.634c0 .346.287.633.633.633h1.267c.346 0 .633.287.633.633a.638.638 0 0 1-.633.634H34.2a.638.638 0 0 0-.633.633c0 .346.287.633.633.633h.633c.347 0 .634.287.634.634a.638.638 0 0 1-.634.633h-7.6a1.263 1.263 0 0 1-1.266-1.267v-5.334a4.049 4.049 0 0 0 1.682-2.137c.564-1.692.851-3.464.851-5.245 0-.089.06-.158.139-.188.217-.04.781-.138 1.316.91a4.26 4.26 0 0 1 .435 1.95v1.811c0 .346.287.633.633.633h5.067a.64.64 0 0 1 .643.634Zm-5.066-1.9v-1.178a5.579 5.579 0 0 0-.574-2.523c-.624-1.218-1.574-1.782-2.672-1.584a1.454 1.454 0 0 0-1.188 1.435c0 1.643-.267 3.286-.781 4.85a2.8 2.8 0 0 1-1.099 1.424 1.936 1.936 0 0 0-1.286-.514h-2.534a1.9 1.9 0 0 0-1.9 1.9v2.533h-17.1a1.263 1.263 0 0 1-1.266-1.267V8.708h31.666v15.834h-1.266ZM2.533 3.642h29.134c.702 0 1.266.564 1.266 1.266v2.534H1.267V4.908c0-.702.564-1.266 1.266-1.266Z" fill="#fff"/><path fill-rule="evenodd" clip-rule="evenodd" d="M3.8 5.542a.638.638 0 0 1-.633.633.638.638 0 0 1-.634-.633c0-.347.287-.634.634-.634.346 0 .633.287.633.634ZM6.333 5.542a.638.638 0 0 1-.633.633.638.638 0 0 1-.634-.633c0-.347.287-.634.634-.634.346 0 .633.287.633.634ZM8.866 5.542a.638.638 0 0 1-.633.633.638.638 0 0 1-.633-.633c0-.347.287-.634.633-.634.346 0 .633.287.633.634Z" fill="#fff"/><path d="M5.067 22.008H15.2a1.9 1.9 0 0 0 1.9-1.9v-7.6a1.9 1.9 0 0 0-1.9-1.9H5.067a1.9 1.9 0 0 0-1.9 1.9v7.6a1.9 1.9 0 0 0 1.9 1.9Zm1.554-1.266L9.55 16.13l1.405 1.762-1.801 2.85H6.621Zm8.58 0h-4.543l3.335-5.245 1.84 2.306v2.315a.636.636 0 0 1-.633.624ZM4.433 12.508c0-.346.287-.633.633-.633H15.2c.347 0 .634.287.634.633v3.266l-1.405-1.761a.642.642 0 0 0-.525-.238.637.637 0 0 0-.505.297l-1.712 2.692-1.692-2.118a.642.642 0 0 0-.524-.238.636.636 0 0 0-.505.297l-3.84 6.037h-.059a.638.638 0 0 1-.633-.634v-7.6Z" fill="#fff"/><path fill-rule="evenodd" clip-rule="evenodd" d="M6.966 13.775a.638.638 0 0 1-.633.633.638.638 0 0 1-.634-.633c0-.346.287-.633.634-.633.346 0 .633.287.633.633ZM30.4 11.241H19.633a.638.638 0 0 0-.633.633c0 .347.287.634.633.634H30.4a.638.638 0 0 0 .633-.633.638.638 0 0 0-.633-.634ZM30.4 13.775H19.633a.638.638 0 0 0-.633.634c0 .346.287.633.633.633H30.4a.638.638 0 0 0 .633-.633.638.638 0 0 0-.633-.634ZM30.4 16.308H19.633a.638.638 0 0 0-.633.633c0 .346.287.633.633.633H30.4a.638.638 0 0 0 .633-.633.638.638 0 0 0-.633-.633ZM25.333 18.842h-5.7a.638.638 0 0 0-.633.633c0 .346.287.633.633.633h5.7a.638.638 0 0 0 .634-.633.638.638 0 0 0-.634-.633ZM18.367 24.542H3.8a.638.638 0 0 0-.633.633c0 .347.287.634.633.634h14.567a.638.638 0 0 0 .633-.634.638.638 0 0 0-.633-.633ZM16.467 27.074H3.8a.638.638 0 0 0-.633.634c0 .346.287.633.633.633h12.667a.638.638 0 0 0 .633-.633.638.638 0 0 0-.633-.634Z" fill="#fff"/></svg>