<svg viewBox="0 0 94 22" fill="none" xmlns="http://www.w3.org/2000/svg"><path d="M3.49 13.952c-.444 0-.957-.068-1.537-.204l-1.832-.5.5-1.5c1.036.371 1.9.556 2.591.556.37 0 .679-.086.926-.259a.815.815 0 0 0 .37-.704c0-.296-.08-.518-.24-.666-.161-.148-.457-.278-.89-.389l-.999-.259C.997 9.67.306 8.855.306 7.584c0-.766.29-1.395.87-1.889.592-.493 1.364-.74 2.314-.74.383 0 .833.068 1.351.203l1.833.5-.5 1.5c-1-.37-1.758-.556-2.277-.556-.345 0-.635.093-.87.278a.81.81 0 0 0-.352.685c0 .296.08.518.241.666.16.149.457.278.889.39l.98.258c.741.198 1.272.5 1.593.907.32.395.481.908.481 1.537 0 .753-.284 1.382-.851 1.888-.568.494-1.407.74-2.518.74Zm7.917 0c-.925 0-1.58-.229-1.962-.685-.37-.457-.555-1.154-.555-2.092V6.75H7.52V5.121h1.37V2.955l2.35-.462V5.12h2.037v1.63h-2.036v4.46c0 .73.296 1.093.888 1.093.358 0 .74-.11 1.148-.333l.37 1.388a4.374 4.374 0 0 1-2.24.593Zm5.765 0c-.84 0-1.506-.26-2-.778a2.592 2.592 0 0 1-.74-1.851c0-.53.173-.957.518-1.277.358-.334.914-.593 1.666-.778l2.98-.74v-.76c0-.357-.11-.641-.332-.85-.21-.21-.506-.316-.889-.316-.432 0-1.407.327-2.925.982l-.648-1.5 2.11-.778c.642-.234 1.111-.351 1.408-.351 1.123 0 2.005.296 2.647.888.654.58.98 1.346.98 2.296v3.184c0 .234.038.586.112 1.055.086.457.197.846.333 1.166l-2.018.408c-.246-.272-.506-.648-.777-1.13-.827.753-1.635 1.13-2.425 1.13Zm.833-1.648c.481 0 1.012-.277 1.592-.833v-1.87l-1.851.537c-.593.173-.889.5-.889.981 0 .37.105.66.315.87.21.21.487.315.833.315Zm8.833 1.648c-.926 0-1.58-.229-1.963-.685-.37-.457-.555-1.154-.555-2.092V6.75h-1.37V5.121h1.37V2.955l2.351-.462V5.12h2.037v1.63H26.67v4.46c0 .73.296 1.093.889 1.093.358 0 .74-.11 1.148-.333l.37 1.388a4.374 4.374 0 0 1-2.24.593Zm26.146-.167h-2.351V8.731c0-.74-.111-1.277-.333-1.61-.21-.346-.55-.519-1.018-.519-.47 0-.975.278-1.518.833v6.35h-2.352V8.731c0-.74-.104-1.277-.314-1.61-.21-.346-.556-.519-1.037-.519-.456 0-.962.278-1.518.833v6.35h-2.351V7.584c0-.235-.043-.58-.13-1.037a5.117 5.117 0 0 0-.314-1.185l2-.407c.258.259.524.635.795 1.129.778-.753 1.586-1.13 2.425-1.13 1.247 0 2.092.439 2.536 1.315.272-.358.66-.666 1.167-.925a3.304 3.304 0 0 1 1.518-.39c.938 0 1.635.272 2.092.815.469.543.703 1.389.703 2.536v5.48Zm4.268.167c-.839 0-1.505-.26-1.999-.778a2.592 2.592 0 0 1-.74-1.851c0-.53.172-.957.518-1.277.358-.334.913-.593 1.666-.778l2.98-.74v-.76c0-.357-.11-.641-.333-.85-.21-.21-.506-.316-.888-.316-.432 0-1.407.327-2.925.982l-.648-1.5 2.11-.778c.642-.234 1.111-.351 1.407-.351 1.123 0 2.006.296 2.648.888.654.58.98 1.346.98 2.296v3.184c0 .234.038.586.112 1.055.086.457.197.846.333 1.166l-2.018.408c-.247-.272-.506-.648-.777-1.13-.827.753-1.636 1.13-2.425 1.13Zm.834-1.648c.48 0 1.012-.277 1.592-.833v-1.87l-1.852.537c-.592.173-.888.5-.888.981 0 .37.105.66.314.87.21.21.488.315.834.315Zm8.403 1.481h-2.352V7.584c0-.235-.043-.58-.13-1.037a5.117 5.117 0 0 0-.314-1.185l2-.407c.382.382.647.9.796 1.555.246-.494.573-.876.98-1.148.42-.272.87-.407 1.352-.407.272 0 .518.043.74.13l-.407 2.017h-.61c-.58 0-1.037.142-1.37.426-.322.271-.55.728-.686 1.37v4.887Zm12.225 0h-2.888l-2.87-4.48v4.48h-2.35V1.42l2.35-.463v7.701l2.925-3.536h2.647l-3.48 3.87 3.666 4.794Zm4.214.167c-1.395 0-2.45-.414-3.166-1.24-.704-.84-1.055-1.938-1.055-3.296 0-1.357.364-2.437 1.092-3.24.728-.814 1.74-1.221 3.036-1.221 2.505 0 3.758 1.302 3.758 3.906 0 .271-.03.5-.093.685h-5.368c0 .925.166 1.617.5 2.073.345.457.82.685 1.425.685.679 0 1.568-.247 2.666-.74l.648 1.5-1.962.721c-.334.111-.827.167-1.481.167Zm-.222-7.35c-.494 0-.883.173-1.167.519-.271.345-.407.777-.407 1.296h3.017c0-1.21-.48-1.815-1.444-1.815Zm8.497 7.35c-.925 0-1.58-.229-1.962-.685-.37-.457-.556-1.154-.556-2.092V6.75h-1.37V5.121h1.37V2.955l2.352-.462V5.12h2.036v1.63h-2.036v4.46c0 .73.296 1.093.888 1.093.358 0 .74-.11 1.148-.333l.37 1.388a4.375 4.375 0 0 1-2.24.593Z" fill="#54618E"/><path d="M37.508 13.785h-2.24v-2.85h-5.054l-.5-1.445 5.276-7.553h2.518v7.257h1.185v1.74h-1.185v2.851Zm-2.24-4.59V4.38L31.99 9.194h3.277Z" fill="#D653D2"/></svg>