<svg width="152" height="152" fill="none" xmlns="http://www.w3.org/2000/svg"><mask id="b" style="mask-type:alpha" maskUnits="userSpaceOnUse" x="0" y="0" width="152" height="152"><circle cx="76" cy="76" r="76" fill="url(#a)"/></mask><g mask="url(#b)"><circle cx="76" cy="76" r="76" fill="url(#c)"/><path d="M100.165 97.091V12.618c0-1.293.038-2.698.114-4.218.152-1.52.304-3.078.456-4.674L30.967 97.09h69.198Zm64.582 0v5.929c0 .836-.266 1.52-.798 2.052-.456.456-1.216.684-2.28.684h-51.928v46.284h-9.576v-46.284H23.899c-1.14 0-2.014-.228-2.622-.684-.608-.532-1.026-1.216-1.254-2.052l-1.026-5.358 81.054-107.16h9.69v106.59h55.006Z" fill="#fff"/></g><defs><linearGradient id="a" x1="174.8" y1="-45.6" x2="43.7" y2="152" gradientUnits="userSpaceOnUse"><stop stop-color="#F0A"/><stop offset="1" stop-color="#8912DE"/></linearGradient><linearGradient id="c" x1="174.8" y1="-45.6" x2="43.7" y2="152" gradientUnits="userSpaceOnUse"><stop stop-color="#F0A"/><stop offset="1" stop-color="#8912DE"/></linearGradient></defs></svg>