<svg width="36" height="19" fill="none" xmlns="http://www.w3.org/2000/svg"><mask id="b" style="mask-type:alpha" maskUnits="userSpaceOnUse" x="0" y="0" width="36" height="19"><ellipse cx="17.548" cy="9.567" rx="17.548" ry="8.872" fill="url(#a)"/></mask><g mask="url(#b)"><ellipse cx="17.548" cy="9.567" rx="17.548" ry="8.872" fill="url(#c)"/><path d="M23.128 12.03V2.168c0-.15.009-.315.026-.492.036-.177.07-.36.106-.546L7.15 12.03h15.978Zm14.912 0v.692c0 .097-.062.177-.184.24-.106.052-.281.079-.527.079H25.34v5.403h-2.21v-5.403H5.518c-.264 0-.465-.027-.606-.08a.577.577 0 0 1-.29-.24l-.236-.625L23.102-.414h2.237V12.03h12.7Z" fill="#fff"/></g><defs><linearGradient id="a" x1="40.361" y1="-4.628" x2="30.345" y2="25.233" gradientUnits="userSpaceOnUse"><stop stop-color="#F0A"/><stop offset="1" stop-color="#8912DE"/></linearGradient><linearGradient id="c" x1="40.361" y1="-4.628" x2="30.345" y2="25.233" gradientUnits="userSpaceOnUse"><stop stop-color="#F0A"/><stop offset="1" stop-color="#8912DE"/></linearGradient></defs></svg>