<svg width="35" height="32" fill="none" xmlns="http://www.w3.org/2000/svg"><mask id="b" style="mask-type:alpha" maskUnits="userSpaceOnUse" x="0" y="0" width="35" height="33"><ellipse cx="17.5" cy="16" rx="17.5" ry="16" fill="url(#a)"/></mask><g mask="url(#b)"><ellipse cx="17.5" cy="16" rx="17.5" ry="16" fill="url(#c)"/><path d="M23.065 20.44V2.658c0-.272.009-.568.026-.888l.105-.984L7.131 20.44h15.934Zm14.87 0v1.249c0 .176-.06.32-.183.432-.105.096-.28.144-.525.144H25.27v9.744h-2.205v-9.744H5.504c-.263 0-.464-.048-.604-.144a.851.851 0 0 1-.289-.432l-.236-1.128L23.039-2h2.231v22.44h12.666Z" fill="#fff"/></g><defs><linearGradient id="a" x1="40.25" y1="-9.6" x2="13.683" y2="34.197" gradientUnits="userSpaceOnUse"><stop stop-color="#F0A"/><stop offset="1" stop-color="#8912DE"/></linearGradient><linearGradient id="c" x1="40.25" y1="-9.6" x2="13.683" y2="34.197" gradientUnits="userSpaceOnUse"><stop stop-color="#F0A"/><stop offset="1" stop-color="#8912DE"/></linearGradient></defs></svg>